<svg id="Livello_1" data-name="Livello 1" xmlns="http://www.w3.org/2000/svg" viewBox="0 0 161.17 8.97"><defs><style>.cls-1{fill:#1d1d1b;}</style></defs><path class="cls-1" d="M5.59,7A2.22,2.22,0,0,1,4.34,8.67,3.23,3.23,0,0,1,2.82,9a3.59,3.59,0,0,1-1-.16,2.4,2.4,0,0,1-.9-.46,2.28,2.28,0,0,1-.64-.82A2.75,2.75,0,0,1,0,6.32V5.58H1.7V6a3.48,3.48,0,0,0,.05.58A1.14,1.14,0,0,0,1.92,7a.85.85,0,0,0,.33.29,1.1,1.1,0,0,0,.55.11,1,1,0,0,0,.57-.13.75.75,0,0,0,.3-.34,1.35,1.35,0,0,0,.1-.46,3.77,3.77,0,0,0,0-.47V.2H5.68V6.07A5.39,5.39,0,0,1,5.59,7Z"/><path class="cls-1" d="M12.29,2.74a4.23,4.23,0,0,1,.83-1.43,3.75,3.75,0,0,1,1.32-1A4.4,4.4,0,0,1,16.21,0,4.35,4.35,0,0,1,18,.35a3.75,3.75,0,0,1,1.32,1,4.4,4.4,0,0,1,.83,1.43,5.4,5.4,0,0,1,.28,1.78,5.22,5.22,0,0,1-.28,1.75,4.31,4.31,0,0,1-.83,1.41A3.7,3.7,0,0,1,18,8.62,4.35,4.35,0,0,1,16.21,9a4.4,4.4,0,0,1-1.77-.35,3.7,3.7,0,0,1-1.32-.94,4.14,4.14,0,0,1-.83-1.41A5.22,5.22,0,0,1,12,4.52,5.4,5.4,0,0,1,12.29,2.74ZM14,5.57a2.74,2.74,0,0,0,.4.92,2.28,2.28,0,0,0,.72.66,2.27,2.27,0,0,0,1.08.24,2.21,2.21,0,0,0,1.08-.24A2.08,2.08,0,0,0,18,6.49a2.55,2.55,0,0,0,.4-.92,4.08,4.08,0,0,0,.13-1.05,4.4,4.4,0,0,0-.13-1.09,2.73,2.73,0,0,0-.4-.94,1.91,1.91,0,0,0-.72-.66,2.21,2.21,0,0,0-1.08-.25,2.27,2.27,0,0,0-1.08.25,2.07,2.07,0,0,0-.72.66,2.93,2.93,0,0,0-.4.94,4.93,4.93,0,0,0-.13,1.09A4.57,4.57,0,0,0,14,5.57Z"/><path class="cls-1" d="M31.37.2a2.87,2.87,0,0,1,1,.19A2.34,2.34,0,0,1,33.2.9a2.19,2.19,0,0,1,.5.75,2.32,2.32,0,0,1,.18.92,2.62,2.62,0,0,1-.32,1.31,2.07,2.07,0,0,1-1,.84v0A1.51,1.51,0,0,1,33.1,5a1.87,1.87,0,0,1,.37.47,2.65,2.65,0,0,1,.21.6c0,.21.07.43.09.64s0,.3,0,.48,0,.38,0,.57a4.32,4.32,0,0,0,.1.54,1.12,1.12,0,0,0,.2.44H32.24a3.62,3.62,0,0,1-.19-1c0-.38-.06-.74-.11-1.08a1.68,1.68,0,0,0-.4-1,1.4,1.4,0,0,0-1-.32H28.63V8.77H26.75V.2ZM30.7,4.08a1.44,1.44,0,0,0,1-.29A1.2,1.2,0,0,0,32,2.86,1.17,1.17,0,0,0,31.67,2a1.44,1.44,0,0,0-1-.28H28.63V4.08Z"/><path class="cls-1" d="M42.34.2V8.77H40.45V.2Z"/><path class="cls-1" d="M50.47,6.66a1.42,1.42,0,0,0,.42.49,1.83,1.83,0,0,0,.6.27,2.84,2.84,0,0,0,.72.09,3.44,3.44,0,0,0,.54,0,2,2,0,0,0,.54-.16A1.14,1.14,0,0,0,53.71,7a.85.85,0,0,0,.17-.54.73.73,0,0,0-.22-.56,1.92,1.92,0,0,0-.58-.36,5.3,5.3,0,0,0-.82-.25L51.34,5a7.35,7.35,0,0,1-.94-.3,3,3,0,0,1-.82-.45,2,2,0,0,1-.8-1.69,2.19,2.19,0,0,1,.28-1.14A2.5,2.5,0,0,1,49.8.64a3,3,0,0,1,1-.48A4.2,4.2,0,0,1,52,0a5.43,5.43,0,0,1,1.29.15,3.06,3.06,0,0,1,1.1.49,2.39,2.39,0,0,1,.76.85,2.62,2.62,0,0,1,.29,1.27H53.59a1.47,1.47,0,0,0-.16-.64,1,1,0,0,0-.37-.39,1.42,1.42,0,0,0-.52-.21,3.16,3.16,0,0,0-.64-.06,2.49,2.49,0,0,0-.46.05,1.15,1.15,0,0,0-.41.17,1.11,1.11,0,0,0-.31.3.81.81,0,0,0-.12.46.79.79,0,0,0,.1.4.81.81,0,0,0,.38.29,4.9,4.9,0,0,0,.78.27l1.3.33a6.48,6.48,0,0,1,.67.18,2.92,2.92,0,0,1,.84.4,2.58,2.58,0,0,1,.73.74,2.11,2.11,0,0,1,.3,1.18,2.66,2.66,0,0,1-.22,1.09,2.4,2.4,0,0,1-.68.87,3,3,0,0,1-1.12.57A5.12,5.12,0,0,1,52.14,9a5.2,5.2,0,0,1-1.37-.18,3.29,3.29,0,0,1-1.18-.55,2.64,2.64,0,0,1-.81-.94,2.83,2.83,0,0,1-.29-1.37h1.83A1.61,1.61,0,0,0,50.47,6.66Z"/><path class="cls-1" d="M72.32.2a3.47,3.47,0,0,1,1.37.24,2.45,2.45,0,0,1,.92.62,2.27,2.27,0,0,1,.52.87,3.51,3.51,0,0,1,.16,1,3.56,3.56,0,0,1-.16,1,2.39,2.39,0,0,1-.52.88,2.71,2.71,0,0,1-.92.62,3.67,3.67,0,0,1-1.37.23h-2V8.77H68.46V.2Zm-.51,4a4.21,4.21,0,0,0,.62,0A1.45,1.45,0,0,0,73,4a1.07,1.07,0,0,0,.37-.39A1.41,1.41,0,0,0,73.46,3a1.41,1.41,0,0,0-.13-.66A1.07,1.07,0,0,0,73,1.9a1.44,1.44,0,0,0-.53-.18,3.18,3.18,0,0,0-.62-.05H70.34V4.24Z"/><path class="cls-1" d="M81.42,2.74a4.23,4.23,0,0,1,.83-1.43,3.75,3.75,0,0,1,1.32-1A4.4,4.4,0,0,1,85.34,0a4.35,4.35,0,0,1,1.78.35,3.75,3.75,0,0,1,1.32,1,4.4,4.4,0,0,1,.83,1.43,5.4,5.4,0,0,1,.29,1.78,5.22,5.22,0,0,1-.29,1.75,4.31,4.31,0,0,1-.83,1.41,3.7,3.7,0,0,1-1.32.94A4.35,4.35,0,0,1,85.34,9a4.4,4.4,0,0,1-1.77-.35,3.7,3.7,0,0,1-1.32-.94,4.14,4.14,0,0,1-.83-1.41,5.22,5.22,0,0,1-.29-1.75A5.4,5.4,0,0,1,81.42,2.74Zm1.72,2.83a3,3,0,0,0,.4.92,2.28,2.28,0,0,0,.72.66,2.27,2.27,0,0,0,1.08.24,2.21,2.21,0,0,0,1.08-.24,2.08,2.08,0,0,0,.72-.66,2.75,2.75,0,0,0,.41-.92,4.57,4.57,0,0,0,.12-1.05,4.92,4.92,0,0,0-.12-1.09,3,3,0,0,0-.41-.94,1.91,1.91,0,0,0-.72-.66,2.21,2.21,0,0,0-1.08-.25,2.27,2.27,0,0,0-1.08.25,2.07,2.07,0,0,0-.72.66,3.18,3.18,0,0,0-.4.94A4.92,4.92,0,0,0,83,4.52,4.57,4.57,0,0,0,83.14,5.57Z"/><path class="cls-1" d="M101,8.71A3.12,3.12,0,0,1,99.72,9,4.33,4.33,0,0,1,98,8.62a3.74,3.74,0,0,1-1.33-.94,4.12,4.12,0,0,1-.82-1.41,5,5,0,0,1-.29-1.75,5.15,5.15,0,0,1,.29-1.78,4.21,4.21,0,0,1,.82-1.43A3.79,3.79,0,0,1,98,.35,4.33,4.33,0,0,1,99.72,0,4.28,4.28,0,0,1,101,.2a3.46,3.46,0,0,1,1.11.58,3.31,3.31,0,0,1,.83,1A3.3,3.3,0,0,1,103.33,3h-1.8a1.8,1.8,0,0,0-.65-1.08,1.86,1.86,0,0,0-1.16-.36,2.24,2.24,0,0,0-1.08.25,1.91,1.91,0,0,0-.72.66,2.73,2.73,0,0,0-.4.94,4.4,4.4,0,0,0-.13,1.09,4.08,4.08,0,0,0,.13,1.05,2.55,2.55,0,0,0,.4.92,2.08,2.08,0,0,0,.72.66,2.24,2.24,0,0,0,1.08.24,2.06,2.06,0,0,0,1.44-.47,2.06,2.06,0,0,0,.6-1.38h-1.9V4.14h3.6V8.77h-1.2l-.19-1A3,3,0,0,1,101,8.71Z"/><path class="cls-1" d="M115.1,8.71a3.2,3.2,0,0,1-1.23.26,4.33,4.33,0,0,1-1.77-.35,3.65,3.65,0,0,1-1.33-.94,4.31,4.31,0,0,1-.83-1.41,5.22,5.22,0,0,1-.29-1.75,5.4,5.4,0,0,1,.29-1.78,4.4,4.4,0,0,1,.83-1.43,3.7,3.7,0,0,1,1.33-1A4.33,4.33,0,0,1,113.87,0a4.28,4.28,0,0,1,1.28.2,3.46,3.46,0,0,1,1.11.58A3.19,3.19,0,0,1,117.48,3h-1.8A1.8,1.8,0,0,0,115,1.94a1.88,1.88,0,0,0-1.16-.36,2.21,2.21,0,0,0-1.08.25,1.91,1.91,0,0,0-.72.66,3,3,0,0,0-.41.94,4.92,4.92,0,0,0-.12,1.09,4.57,4.57,0,0,0,.12,1.05,2.75,2.75,0,0,0,.41.92,2.08,2.08,0,0,0,.72.66,2.21,2.21,0,0,0,1.08.24,2.06,2.06,0,0,0,1.44-.47,2.11,2.11,0,0,0,.6-1.38H114V4.14h3.6V8.77h-1.2l-.19-1A3,3,0,0,1,115.1,8.71Z"/><path class="cls-1" d="M126.06.2V8.77h-1.88V.2Z"/><path class="cls-1" d="M132.67,2.74a4.23,4.23,0,0,1,.83-1.43,3.7,3.7,0,0,1,1.33-1,4.65,4.65,0,0,1,3.54,0,3.75,3.75,0,0,1,1.32,1,4.23,4.23,0,0,1,.83,1.43,5.4,5.4,0,0,1,.29,1.78,5.22,5.22,0,0,1-.29,1.75,4.14,4.14,0,0,1-.83,1.41,3.7,3.7,0,0,1-1.32.94,4.65,4.65,0,0,1-3.54,0,3.65,3.65,0,0,1-1.33-.94,4.14,4.14,0,0,1-.83-1.41,5.22,5.22,0,0,1-.29-1.75A5.4,5.4,0,0,1,132.67,2.74Zm1.72,2.83a2.75,2.75,0,0,0,.41.92,2.08,2.08,0,0,0,.72.66,2.21,2.21,0,0,0,1.08.24,2.27,2.27,0,0,0,1.08-.24,2.28,2.28,0,0,0,.72-.66,3,3,0,0,0,.4-.92,4.57,4.57,0,0,0,.12-1.05,4.92,4.92,0,0,0-.12-1.09,3.18,3.18,0,0,0-.4-.94,2.07,2.07,0,0,0-.72-.66,2.27,2.27,0,0,0-1.08-.25,2.21,2.21,0,0,0-1.08.25,1.91,1.91,0,0,0-.72.66,3,3,0,0,0-.41.94,4.92,4.92,0,0,0-.12,1.09A4.57,4.57,0,0,0,134.39,5.57Z"/><path class="cls-1" d="M149,.2v7h4.17V8.77h-6.06V.2Z"/><path class="cls-1" d="M161.17.2V8.77h-1.88V.2Z"/></svg>